# xmcd CD database file
#
# Track frame offsets:
#	150
#	14447
#	30565
#	45627
#	56507
#	71882
#	87465
#	99522
#	113330
#	131012
#
# Disc length: 1967 seconds
#
# Revision: 0
# Processed by: cddbd v1.4PL0 Copyright (c) Steve Scherf et al.
# Submitted via: CDex 1.40Release
#
DISCID=8007ad0a
DTITLE=Snörurnar - Snörurnar
DYEAR=1996
DGENRE=Country
TTITLE0=Snörurnar - Óveður
TTITLE1=Snörurnar - Dansinn
TTITLE2=Snörurnar - Skin og skúrir
TTITLE3=Snörurnar - Kveiktu ljós
TTITLE4=Snörurnar - Ég er á lífi
TTITLE5=Snörurnar - Ó vinur ég er hætt að elska þig
TTITLE6=Snörurnar - Ein að basla í Reykjavík
TTITLE7=Snörurnar - Mig átt þú einn
TTITLE8=Snörurnar - Upp til skýja
TTITLE9=Snörurnar - Lífið er svo stutt
EXTD=YEAR: 1996 ID3G: 2
EXTT0=
EXTT1=
EXTT2=
EXTT3=
EXTT4=
EXTT5=
EXTT6=
EXTT7=
EXTT8=
EXTT9=
PLAYORDER=
